<svg width="186" height="64" viewBox="0 0 186 64" fill="none" xmlns="http://www.w3.org/2000/svg">
<rect x="0.5" y="0.5" width="185" height="63" rx="16.5" stroke="white"/>
<path d="M56.3348 39C55.3318 39.17 54.2608 39.17 53.2408 39C52.6968 38.915 52.1528 38.728 51.6938 38.405C51.4048 38.184 51.1498 37.912 50.9288 37.623C50.4358 36.926 50.0958 36.11 49.9258 35.277C49.6708 34.07 49.6708 32.795 49.7558 31.571C49.8238 30.381 49.9768 29.174 50.2488 28.018C50.2488 28.001 50.2488 27.967 50.2488 27.95C50.2828 27.644 50.3848 27.338 50.5718 27.083C50.7248 26.845 50.9798 26.658 51.2348 26.573C51.7448 26.369 52.3058 26.352 52.8498 26.352C53.8698 26.352 54.8898 26.42 55.9098 26.556C56.6578 26.658 57.4228 26.828 58.1198 27.134C59.1398 27.593 60.1428 28.307 60.7378 29.259C61.0098 29.667 61.1798 30.143 61.2988 30.619C61.5538 31.588 61.5708 32.642 61.4348 33.628C61.2648 34.801 60.7038 35.923 59.9728 36.875C59.4968 37.487 58.8848 38.031 58.2048 38.388C57.6268 38.694 56.9808 38.881 56.3348 39ZM55.4678 34.886C55.9098 34.92 56.4028 34.801 56.7768 34.546C57.0828 34.342 57.3038 33.985 57.4058 33.611C57.5928 32.863 57.4568 31.962 57.0318 31.299C56.7768 30.908 56.3348 30.653 55.9098 30.466C55.4848 30.296 55.0258 30.194 54.5668 30.262C54.4478 31.129 54.3968 32.03 54.4138 32.897C54.4138 33.441 54.4818 33.985 54.6008 34.512C54.8388 34.716 55.1448 34.852 55.4678 34.886ZM69.4022 39.034C68.2972 39.085 67.1922 39.085 66.1042 38.898C65.4072 38.779 64.7102 38.507 64.1832 38.048C63.3842 37.351 62.8572 36.28 62.7042 35.209C62.5172 34.087 62.5682 32.914 62.7382 31.775C62.8742 30.755 63.0952 29.735 63.5542 28.817C63.8432 28.273 64.2342 27.763 64.6932 27.338C64.9652 27.083 65.2712 26.862 65.6282 26.743C66.0192 26.59 66.4612 26.607 66.8692 26.522C67.5152 26.403 68.1782 26.403 68.8242 26.369C69.8442 26.301 70.9322 26.335 71.8332 26.794C72.0542 26.913 72.2582 27.1 72.4112 27.321C72.5812 27.593 72.6662 27.916 72.6832 28.256C72.7512 29.276 72.0712 30.279 71.0512 30.262C70.7622 30.262 70.4562 30.194 70.1842 30.109C69.6572 29.973 69.1302 29.803 68.5862 29.735C68.1442 29.701 67.6512 29.752 67.2942 30.024C67.1412 30.143 67.0222 30.347 67.0222 30.551C67.0392 30.721 67.2262 30.721 67.3962 30.704C67.9232 30.636 68.4162 30.449 68.9432 30.398C69.2662 30.364 69.6062 30.347 69.9122 30.449C70.1842 30.568 70.4392 30.789 70.5582 31.061C70.7112 31.435 70.7622 31.843 70.7282 32.234C70.7112 32.608 70.6092 33.016 70.3712 33.305C70.2182 33.509 70.0142 33.662 69.7762 33.764C69.5212 33.866 69.2492 33.883 68.9602 33.9C68.5352 33.917 67.3112 33.73 67.0052 34.036C66.6822 34.342 67.1072 34.818 67.5492 34.92C67.9912 35.005 68.4672 34.886 68.9092 34.784C69.5552 34.648 70.2352 34.478 70.8812 34.597C71.3912 34.665 71.9182 34.954 72.1902 35.362C72.4112 35.702 72.4622 36.161 72.3772 36.552C72.2242 37.3 71.8162 38.065 71.2212 38.541C70.7282 38.932 70.0312 39.017 69.4022 39.034ZM75.7981 38.864C75.3731 38.983 74.8801 38.932 74.5231 38.694C74.2681 38.541 74.0811 38.269 73.9961 37.997C73.8091 37.487 73.8431 36.909 73.9621 36.382C74.1491 35.566 74.6251 34.835 75.1011 34.155C75.3561 33.798 75.6281 33.424 75.9681 33.135C75.4921 32.438 74.9821 31.775 74.5571 31.061C74.2171 30.5 73.8941 29.871 73.8091 29.225C73.7581 28.851 73.7581 28.477 73.8771 28.12C74.2341 27.015 75.4581 26.454 76.5631 26.794C76.9031 26.913 77.2261 27.1 77.4811 27.372C77.8381 27.763 78.0591 28.29 78.2291 28.8C78.4161 29.412 78.5861 30.024 78.7901 30.636C79.0791 29.65 79.4361 28.664 80.0991 27.865C80.4731 27.406 81.0001 27.015 81.5951 26.845C81.9351 26.76 82.3091 26.76 82.6491 26.896C83.5161 27.202 84.2301 28.494 84.1621 29.412C84.1111 30.143 83.6011 30.806 83.0741 31.299C82.3601 31.945 81.5611 32.557 81.0681 33.39C81.3911 33.866 81.7651 34.291 82.1391 34.733C82.4621 35.124 82.8701 35.498 83.0571 35.991C83.2441 36.484 83.2951 37.113 83.0911 37.623C82.6831 38.626 81.3911 39.068 80.3541 38.762C79.8101 38.592 79.3171 38.201 78.9771 37.742C78.6031 37.232 78.3821 36.62 78.1781 36.008C77.7531 36.841 77.3281 37.691 76.6821 38.354C76.4441 38.592 76.1211 38.779 75.7981 38.864ZM91.3356 37.776C90.9616 38.507 90.2306 38.949 89.4316 38.949C88.8706 38.932 88.2926 38.626 87.9186 38.201C87.5616 37.776 87.3406 37.249 87.1876 36.739C87.0006 36.042 86.9156 35.311 86.9326 34.58C86.9666 33.373 87.1366 32.166 87.3406 30.976C86.9496 30.976 86.5416 30.942 86.1846 30.806C85.7766 30.653 85.4196 30.398 85.1306 30.092C84.4846 29.412 84.5866 28.12 85.1646 27.389C85.4196 27.066 85.7766 26.828 86.1506 26.692C86.3886 26.624 86.6266 26.59 86.8646 26.59C87.4766 26.556 88.0886 26.607 88.7006 26.607C88.8366 26.607 88.9726 26.59 89.1086 26.59C89.1256 26.59 89.1936 26.624 89.2106 26.624C89.9246 26.59 90.6386 26.539 91.3526 26.539C91.8116 26.556 92.2706 26.624 92.6616 26.828C93.4946 27.287 93.9196 28.256 93.7326 29.157C93.6136 29.701 93.1886 30.177 92.7296 30.449C92.3726 30.653 91.9306 30.755 91.5056 30.755C91.6416 32.421 91.9136 34.07 91.8456 35.736C91.8116 36.433 91.6586 37.147 91.3356 37.776ZM100.345 39.153C99.444 39.238 98.509 39.102 97.659 38.813C96.656 38.473 95.755 37.691 95.177 36.807C94.939 36.433 94.701 36.042 94.565 35.617C94.208 34.563 94.208 33.407 94.327 32.319C94.463 31.095 95.007 29.888 95.738 28.868C96.248 28.171 96.911 27.525 97.676 27.083C98.373 26.658 99.223 26.437 100.039 26.437C100.838 26.454 101.637 26.59 102.385 26.828C103.133 27.083 103.779 27.695 104.238 28.341C104.595 28.834 104.833 29.446 104.969 30.058C105.173 30.925 105.224 31.809 105.207 32.693C105.173 34.036 104.816 35.43 104.119 36.569C103.711 37.283 103.133 37.946 102.436 38.388C101.824 38.796 101.093 39.068 100.345 39.153ZM99.58 35.005C100.141 35.311 100.753 34.869 101.059 34.325C101.501 33.577 101.637 32.625 101.501 31.775C101.433 31.367 101.297 30.959 101.042 30.619C100.906 30.432 100.685 30.245 100.447 30.194C100.209 30.126 99.937 30.194 99.733 30.347C98.764 30.993 98.492 32.846 98.849 33.951C98.985 34.359 99.206 34.801 99.58 35.005ZM112.365 39.153C111.464 39.238 110.529 39.102 109.679 38.813C108.676 38.473 107.775 37.691 107.197 36.807C106.959 36.433 106.721 36.042 106.585 35.617C106.228 34.563 106.228 33.407 106.347 32.319C106.483 31.095 107.027 29.888 107.758 28.868C108.268 28.171 108.931 27.525 109.696 27.083C110.393 26.658 111.243 26.437 112.059 26.437C112.858 26.454 113.657 26.59 114.405 26.828C115.153 27.083 115.799 27.695 116.258 28.341C116.615 28.834 116.853 29.446 116.989 30.058C117.193 30.925 117.244 31.809 117.227 32.693C117.193 34.036 116.836 35.43 116.139 36.569C115.731 37.283 115.153 37.946 114.456 38.388C113.844 38.796 113.113 39.068 112.365 39.153ZM111.6 35.005C112.161 35.311 112.773 34.869 113.079 34.325C113.521 33.577 113.657 32.625 113.521 31.775C113.453 31.367 113.317 30.959 113.062 30.619C112.926 30.432 112.705 30.245 112.467 30.194C112.229 30.126 111.957 30.194 111.753 30.347C110.784 30.993 110.512 32.846 110.869 33.951C111.005 34.359 111.226 34.801 111.6 35.005ZM124.928 38.966C124.35 38.983 123.755 39.034 123.177 38.983C122.735 38.932 122.293 38.949 121.868 38.881C121.375 38.796 120.882 38.609 120.474 38.337C119.862 37.929 119.386 37.317 119.114 36.637C118.655 35.566 118.519 34.359 118.485 33.186C118.451 32.2 118.485 31.214 118.604 30.228C118.672 29.548 118.859 28.834 119.216 28.239C119.522 27.712 120.015 27.236 120.576 26.998C120.967 26.811 121.443 26.743 121.868 26.828C122.259 26.896 122.65 27.117 122.922 27.406C123.33 27.814 123.602 28.392 123.704 28.97C123.823 29.616 123.738 30.313 123.619 30.959C123.432 31.86 123.16 32.744 123.041 33.662C122.99 33.951 122.956 34.648 123.126 34.869C123.279 35.039 123.67 34.971 123.891 34.903C124.537 34.699 125.2 34.41 125.863 34.427C126.356 34.444 126.781 34.631 127.104 34.988C127.971 35.991 127.937 37.521 126.866 38.303C126.305 38.694 125.608 38.949 124.928 38.966ZM133.05 39.136C132.302 39.204 131.537 39.204 130.789 39.034C130.364 38.949 129.973 38.728 129.616 38.456C129.123 38.099 128.681 37.589 128.511 36.994C128.222 36.025 128.528 34.784 129.463 34.444C129.99 34.24 130.602 34.342 131.129 34.512C131.265 34.563 132.064 34.903 132.2 34.937C132.421 34.988 132.659 35.022 132.863 34.937C132.982 34.886 133.016 34.75 132.931 34.648C132.829 34.563 132.336 34.376 132.2 34.325C131.452 34.053 130.653 33.832 129.956 33.407C129.514 33.135 129.157 32.659 128.97 32.149C128.749 31.537 128.681 30.84 128.783 30.194C128.885 29.633 129.157 29.072 129.514 28.613C129.735 28.358 129.939 28.069 130.194 27.831C130.704 27.372 131.316 27.015 131.979 26.828C132.846 26.573 133.781 26.573 134.665 26.709C135.158 26.777 135.651 26.93 136.076 27.202C136.365 27.406 136.637 27.661 136.841 27.95C137.385 28.681 137.742 29.888 137.079 30.517C136.688 30.891 136.161 31.146 135.617 31.18C134.852 31.231 134.087 30.959 133.339 31.095C133.186 31.129 132.897 31.197 132.863 31.333C132.829 31.435 132.965 31.588 133.05 31.656C133.254 31.809 134.325 32.336 134.546 32.455C135.328 32.846 136.127 33.305 136.671 33.985C137.011 34.427 137.232 35.005 137.266 35.566C137.3 36.059 137.181 36.552 136.977 37.011C136.671 37.674 136.093 38.252 135.447 38.575C134.699 38.932 133.866 39.085 133.05 39.136Z" fill="white"/>
</svg>
