<svg width="419" height="119" viewBox="0 0 419 119" fill="none" xmlns="http://www.w3.org/2000/svg">
<path d="M35.642 108.05C32.492 110.75 28.442 112.25 24.392 112.4C19.892 112.4 15.092 109.85 12.092 106.4C7.89199 101.6 5.49199 95.15 3.99199 89C1.44199 79.25 0.991993 69.05 1.44199 59.15C1.89199 49.4 3.09199 39.8 5.19199 30.35C6.84199 22.85 9.54199 15.2 14.192 9.05C15.392 7.39999 17.192 5.89999 18.992 5.14999C23.342 3.19999 43.142 1.84999 47.942 1.55C56.942 1.09999 66.392 0.949994 74.942 3.94999C80.192 5.74999 85.142 9.34999 88.442 13.85C94.592 22.7 91.142 35 80.942 38.45C78.242 39.35 75.392 39.35 72.692 39.05C68.192 38.45 63.692 37.55 59.192 37.25C56.492 37.1 53.792 37.1 51.242 38C49.742 38.45 48.242 39.35 47.342 40.55C45.692 42.65 44.642 45.95 47.192 46.85C48.092 47.15 48.992 47.3 49.892 47.3C56.492 47.15 62.942 45.8 69.392 46.55C73.592 46.85 78.242 48.65 80.642 52.1C84.392 57.2 83.942 67.7 80.042 72.8C78.542 74.9 75.992 76.55 73.442 77.3C68.942 78.65 63.992 78.2 59.342 77.6C55.892 77.15 52.292 76.4 48.842 77C47.192 77.3 45.542 78.2 44.492 79.55C44.642 85.55 44.342 91.85 42.392 97.55C41.042 101.45 38.792 105.35 35.642 108.05ZM152.369 114.35C144.419 115.1 136.169 113.9 128.669 111.35C119.819 108.35 111.869 101.45 106.769 93.65C104.669 90.35 102.569 86.9 101.369 83.15C98.2189 73.85 98.2189 63.65 99.2689 54.05C100.469 43.25 105.269 32.6 111.719 23.6C116.219 17.45 122.069 11.75 128.819 7.84999C134.969 4.1 142.469 2.15 149.669 2.15C156.719 2.29999 163.769 3.5 170.369 5.6C176.969 7.84999 182.669 13.25 186.719 18.95C189.869 23.3 191.969 28.7 193.169 34.1C194.969 41.75 195.419 49.55 195.269 57.35C194.969 69.2 191.819 81.5 185.669 91.55C182.069 97.85 176.969 103.7 170.819 107.6C165.419 111.2 158.969 113.6 152.369 114.35ZM145.619 77.75C150.569 80.45 155.969 76.55 158.669 71.75C162.569 65.15 163.769 56.75 162.569 49.25C161.969 45.65 160.769 42.05 158.519 39.05C157.319 37.4 155.369 35.75 153.269 35.3C151.169 34.7 148.769 35.3 146.969 36.65C138.419 42.35 136.019 58.7 139.169 68.45C140.369 72.05 142.319 75.95 145.619 77.75ZM238.774 112.25C234.124 114.05 228.274 113.9 223.624 111.8C218.674 109.55 214.624 105.2 211.924 100.7C208.024 94.1 206.824 85.85 206.374 78.2C205.924 68.3 206.674 58.25 208.024 48.35C209.074 39.65 210.574 31.1 213.124 22.85C213.424 22.1 214.174 19.4 214.924 18.8C215.974 16.1 218.074 13.7 220.474 11.75C224.674 8.3 229.624 5.6 234.874 4.39999C244.774 2.29999 255.274 2 265.174 3.94999C275.974 6.04999 287.374 11.15 294.424 19.85C297.724 23.9 300.124 28.85 301.024 33.95C301.924 39.65 300.724 45.8 298.024 50.75C296.224 54.35 293.674 57.8 290.524 60.5C287.524 63.2 283.924 65.15 280.474 67.1C286.024 72.2 292.924 75.2 299.224 79.25C301.774 80.9 304.024 83.3 305.374 86.15C309.124 94.1 304.924 104.6 297.124 108.8C293.974 110.6 289.774 111.05 286.174 110.6C281.224 110 276.574 107.6 272.374 104.9C263.074 98.6 256.324 88.85 250.474 79.4C251.674 85.55 251.824 92.15 250.324 98.15C249.274 101.9 247.624 105.5 244.924 108.2C243.274 110 241.174 111.35 238.774 112.25ZM254.524 51.05C258.574 52.7 265.024 50.75 267.724 47.3C269.074 45.5 269.674 42.95 269.224 40.85C268.474 37.1 265.024 34.1 261.724 32.45C259.924 31.7 257.824 31.1 255.874 31.55C250.624 33.05 248.524 40.7 249.124 46.25C250.474 48.2 252.274 50.15 254.524 51.05ZM349.673 110.9C343.523 114.5 335.723 114.5 330.023 110.75C326.573 108.5 324.023 104.9 322.373 101.15C318.923 93.65 318.323 84.95 318.023 76.55C317.723 67.1 317.873 57.5 318.173 48.05C318.473 39.8 318.473 31.4 320.123 23.3C321.623 16.25 326.273 9.05 332.873 5.89999C340.223 2.29999 351.023 3.65 355.523 10.55C357.323 13.25 357.923 16.55 358.223 19.85C358.823 25.4 358.523 30.95 358.373 36.35C363.923 28.1 370.523 20.3 378.323 14C382.973 10.4 388.073 6.95 393.773 5.6C397.223 5 400.973 5.45 404.123 6.8C410.573 9.8 418.073 20 417.773 27.2C417.623 33.05 414.023 39.05 409.523 42.8C403.373 48.05 395.573 51.05 387.923 53.45C387.023 53.75 385.073 56 384.473 56.6C384.023 57.2 384.623 58.85 384.773 59.6C385.823 62.9 388.223 65.75 390.773 68.15C393.773 71.3 397.373 73.85 400.973 76.25C403.823 78.05 406.823 79.85 409.373 82.25C411.323 84.35 412.973 87.05 413.423 89.9C413.873 92.3 413.573 94.85 412.823 97.1C411.323 101.75 407.873 105.95 403.673 108.5C388.523 118.1 372.623 102.5 363.773 86.9C362.873 90.65 361.823 94.4 360.323 98C358.073 103.1 354.473 107.9 349.673 110.9Z" fill="black"/>
<path d="M35.642 108.05L36.2928 108.809L35.642 108.05ZM24.392 112.4V113.4H24.4105L24.429 113.399L24.392 112.4ZM12.092 106.4L12.8466 105.744L12.8446 105.741L12.092 106.4ZM3.99199 89L4.96351 88.763L4.96155 88.755L4.95945 88.747L3.99199 89ZM1.44199 59.15L0.443056 59.1039L0.443024 59.1046L1.44199 59.15ZM5.19199 30.35L6.16818 30.5669L6.16864 30.5649L5.19199 30.35ZM14.192 9.05L14.9897 9.65311L14.9953 9.64569L15.0007 9.63817L14.192 9.05ZM18.992 5.14999L19.3766 6.07307L19.3889 6.06795L19.401 6.0625L18.992 5.14999ZM47.942 1.55L47.8921 0.551166L47.8796 0.551943L47.942 1.55ZM74.942 3.94999L74.6109 4.89362L74.6177 4.89594L74.942 3.94999ZM88.442 13.85L89.2632 13.2793L89.2559 13.2689L89.2484 13.2586L88.442 13.85ZM80.942 38.45L81.2582 39.3987L81.2624 39.3973L80.942 38.45ZM72.692 39.05L72.5598 40.0412L72.5707 40.0427L72.5816 40.0439L72.692 39.05ZM59.192 37.25L59.2585 36.2522L59.2475 36.2515L59.192 37.25ZM51.242 38L51.5293 38.9578L51.5523 38.951L51.5748 38.943L51.242 38ZM47.342 40.55L48.1283 41.1678L48.1353 41.159L48.142 41.15L47.342 40.55ZM47.192 46.85L46.8592 47.793L46.8674 47.7959L46.8758 47.7987L47.192 46.85ZM49.892 47.3V48.3H49.9034L49.9147 48.2997L49.892 47.3ZM69.392 46.55L69.2765 47.5433L69.2986 47.5459L69.3207 47.5475L69.392 46.55ZM80.642 52.1L79.8211 52.6711L79.8286 52.6818L79.8363 52.6924L80.642 52.1ZM80.042 72.8L79.2476 72.1926L79.2377 72.2055L79.2283 72.2188L80.042 72.8ZM73.442 77.3L73.1598 76.3406L73.1546 76.3422L73.442 77.3ZM59.342 77.6L59.2127 78.5916L59.214 78.5918L59.342 77.6ZM48.842 77L48.6707 76.0148L48.6631 76.0161L48.842 77ZM44.492 79.55L43.7026 78.9361L43.4834 79.218L43.4923 79.575L44.492 79.55ZM42.392 97.55L43.337 97.8771L43.3382 97.8737L42.392 97.55ZM34.9912 107.291C32.0209 109.837 28.19 111.259 24.355 111.401L24.429 113.399C28.694 113.241 32.9631 111.663 36.2928 108.809L34.9912 107.291ZM24.392 111.4C20.2322 111.4 15.6928 109.017 12.8466 105.744L11.3374 107.056C14.4912 110.683 19.5517 113.4 24.392 113.4V111.4ZM12.8446 105.741C8.8008 101.12 6.4491 94.854 4.96351 88.763L3.02047 89.237C4.53488 95.446 6.98319 102.08 11.3394 107.059L12.8446 105.741ZM4.95945 88.747C2.44425 79.13 1.99348 69.04 2.44096 59.1954L0.443024 59.1046C-0.0094943 69.06 0.439738 79.37 3.02453 89.253L4.95945 88.747ZM2.44093 59.1961C2.88854 49.4978 4.08185 39.9554 6.16818 30.5669L4.21581 30.1331C2.10213 39.6446 0.895444 49.3021 0.443056 59.1039L2.44093 59.1961ZM6.16864 30.5649C7.80324 23.1349 10.4617 15.6417 14.9897 9.65311L13.3943 8.44689C8.62228 14.7583 5.88075 22.5651 4.21535 30.1351L6.16864 30.5649ZM15.0007 9.63817C16.1073 8.11659 17.7675 6.74353 19.3766 6.07307L18.6074 4.22692C16.6165 5.05646 14.6767 6.68339 13.3833 8.46183L15.0007 9.63817ZM19.401 6.0625C20.3501 5.63707 22.2752 5.20239 24.833 4.79455C27.3492 4.39336 30.3608 4.03465 33.3993 3.72613C39.4741 3.1093 45.6092 2.69774 48.0044 2.54805L47.8796 0.551943C45.4748 0.702245 39.3099 1.11569 33.1972 1.73636C30.1419 2.04659 27.0879 2.40975 24.5181 2.8195C21.99 3.2226 19.8089 3.68791 18.5829 4.23748L19.401 6.0625ZM47.9919 2.54875C56.9971 2.09848 66.2663 1.96565 74.6109 4.89359L75.2731 3.00639C66.5177 -0.0656633 56.8869 0.1015 47.8921 0.551243L47.9919 2.54875ZM74.6177 4.89594C79.6778 6.63086 84.4584 10.1088 87.6356 14.4414L89.2484 13.2586C85.8256 8.59121 80.7062 4.86913 75.2663 3.00405L74.6177 4.89594ZM87.6208 14.4207C93.4297 22.7797 90.1284 34.2872 80.6216 37.5027L81.2624 39.3973C92.1556 35.7128 95.7543 22.6203 89.2632 13.2793L87.6208 14.4207ZM80.6258 37.5013C78.1219 38.3359 75.4367 38.3488 72.8024 38.0561L72.5816 40.0439C75.3473 40.3512 78.3621 40.3641 81.2582 39.3987L80.6258 37.5013ZM72.8242 38.0588C68.4163 37.4711 63.797 36.5548 59.2585 36.2522L59.1255 38.2478C63.587 38.5452 67.9677 39.4289 72.5598 40.0412L72.8242 38.0588ZM59.2475 36.2515C56.5301 36.1006 53.659 36.0865 50.9092 37.057L51.5748 38.943C53.925 38.1135 56.4538 38.0994 59.1365 38.2485L59.2475 36.2515ZM50.9547 37.0422C49.3082 37.5361 47.6025 38.536 46.542 39.95L48.142 41.15C48.8815 40.164 50.1758 39.3639 51.5293 38.9578L50.9547 37.0422ZM46.5557 39.9322C45.659 41.0734 44.8792 42.5902 44.6997 44.026C44.6088 44.7529 44.6639 45.5298 45.0132 46.2285C45.3749 46.9519 46.0026 47.4907 46.8592 47.793L47.5248 45.907C47.1064 45.7593 46.9091 45.5481 46.802 45.334C46.6826 45.0952 46.6251 44.7471 46.6843 44.274C46.8048 43.3098 47.375 42.1266 48.1283 41.1678L46.5557 39.9322ZM46.8758 47.7987C47.8722 48.1308 48.8788 48.3 49.892 48.3V46.3C49.1052 46.3 48.3118 46.1692 47.5082 45.9013L46.8758 47.7987ZM49.9147 48.2997C53.2533 48.2239 56.5799 47.8431 59.7789 47.5842C63.007 47.323 66.1523 47.18 69.2765 47.5433L69.5075 45.5567C66.1817 45.17 62.877 45.327 59.6176 45.5908C56.3291 45.8569 53.1307 46.2261 49.8693 46.3003L49.9147 48.2997ZM69.3207 47.5475C73.3541 47.8356 77.6584 49.5622 79.8211 52.6711L81.4629 51.5289C78.8256 47.7378 73.8299 45.8644 69.4632 45.5525L69.3207 47.5475ZM79.8363 52.6924C81.5281 54.9932 82.3385 58.6384 82.2113 62.4164C82.0844 66.1887 81.0299 69.8618 79.2476 72.1926L80.8363 73.4074C82.9541 70.6381 84.0746 66.5113 84.2102 62.4836C84.3455 58.4616 83.5059 54.3068 81.4476 51.5076L79.8363 52.6924ZM79.2283 72.2188C77.8791 74.1076 75.5326 75.6428 73.1598 76.3406L73.7242 78.2594C76.4514 77.4572 79.2049 75.6924 80.8557 73.3812L79.2283 72.2188ZM73.1546 76.3422C68.8813 77.6242 64.1268 77.2091 59.47 76.6082L59.214 78.5918C63.8572 79.1909 69.0027 79.6758 73.7293 78.2578L73.1546 76.3422ZM59.4713 76.6084C56.1369 76.1735 52.3153 75.3809 48.6707 76.0148L49.0133 77.9852C52.2687 77.4191 55.6471 78.1265 59.2127 78.5916L59.4713 76.6084ZM48.6631 76.0161C46.8043 76.3541 44.9232 77.3668 43.7026 78.9361L45.2813 80.1639C46.1608 79.0332 47.5797 78.2459 49.0209 77.9839L48.6631 76.0161ZM43.4923 79.575C43.6414 85.5404 43.3374 91.6971 41.4458 97.2263L43.3382 97.8737C45.3466 92.0029 45.6425 85.5596 45.4917 79.525L43.4923 79.575ZM41.447 97.2229C40.1361 101.01 37.9685 104.739 34.9912 107.291L36.2928 108.809C39.6155 105.961 41.9479 101.89 43.337 97.8771L41.447 97.2229ZM152.369 114.35L152.463 115.346L152.472 115.345L152.482 115.344L152.369 114.35ZM128.669 111.35L128.991 110.403L128.99 110.403L128.669 111.35ZM106.769 93.65L105.925 94.1869L105.932 94.1973L106.769 93.65ZM101.369 83.15L102.321 82.8452L102.319 82.8372L102.316 82.8292L101.369 83.15ZM99.2689 54.05L98.2751 53.9396L98.2749 53.9413L99.2689 54.05ZM111.719 23.6L110.912 23.0095L110.906 23.0175L111.719 23.6ZM128.819 7.84999L129.319 8.71586L129.329 8.70995L129.34 8.70379L128.819 7.84999ZM149.669 2.15L149.69 1.15022L149.68 1.15H149.669V2.15ZM170.369 5.6L170.692 4.65349L170.682 4.65018L170.672 4.64707L170.369 5.6ZM186.719 18.95L185.904 19.5292L185.909 19.5365L186.719 18.95ZM193.169 34.1L192.193 34.3169L192.196 34.329L193.169 34.1ZM195.269 57.35L196.269 57.3753L196.269 57.3692L195.269 57.35ZM185.669 91.55L184.816 91.028L184.808 91.0408L184.801 91.0539L185.669 91.55ZM170.819 107.6L170.283 106.755L170.274 106.762L170.264 106.768L170.819 107.6ZM145.619 77.75L146.098 76.8721H146.098L145.619 77.75ZM158.669 71.75L157.808 71.2413L157.803 71.2505L157.797 71.2597L158.669 71.75ZM162.569 49.25L163.556 49.092L163.555 49.0856L162.569 49.25ZM158.519 39.05L157.71 39.6382L157.715 39.6441L157.719 39.65L158.519 39.05ZM153.269 35.3L152.994 36.2615L153.027 36.2708L153.059 36.2778L153.269 35.3ZM146.969 36.65L147.524 37.482L147.547 37.4667L147.569 37.45L146.969 36.65ZM139.169 68.45L138.217 68.7574L138.22 68.7662L139.169 68.45ZM152.275 113.354C144.484 114.089 136.376 112.914 128.991 110.403L128.347 112.297C135.962 114.886 144.354 116.111 152.463 115.346L152.275 113.354ZM128.99 110.403C120.39 107.488 112.608 100.752 107.606 93.1028L105.932 94.1973C111.13 102.148 119.248 109.212 128.348 112.297L128.99 110.403ZM107.613 93.1131C105.51 89.8097 103.477 86.458 102.321 82.8452L100.417 83.4548C101.66 87.342 103.827 90.8903 105.925 94.1869L107.613 93.1131ZM102.316 82.8292C99.2341 73.7299 99.2196 63.6985 100.263 54.1587L98.2749 53.9413C97.2183 63.6015 97.2038 73.9701 100.422 83.4708L102.316 82.8292ZM100.263 54.1604C101.439 43.5708 106.155 33.0802 112.532 24.1825L110.906 23.0175C104.383 32.1198 99.4984 42.9292 98.2751 53.9396L100.263 54.1604ZM112.526 24.1905C116.961 18.1294 122.712 12.5333 129.319 8.71586L128.319 6.98413C121.426 10.9667 115.477 16.7706 110.912 23.0095L112.526 24.1905ZM129.34 8.70379C135.321 5.05665 142.638 3.15 149.669 3.15V1.15C142.3 1.15 134.617 3.14335 128.298 6.9962L129.34 8.70379ZM149.648 3.14977C156.6 3.29769 163.555 4.4814 170.066 6.55292L170.672 4.64707C163.983 2.5186 156.838 1.3023 149.69 1.15022L149.648 3.14977ZM170.046 6.54651C176.371 8.70278 181.918 13.9201 185.904 19.5292L187.534 18.3708C183.42 12.5799 177.567 6.99721 170.692 4.65349L170.046 6.54651ZM185.909 19.5365C188.958 23.7467 191.013 29.0098 192.193 34.3169L194.145 33.8831C192.924 28.3902 190.78 22.8532 187.529 18.3635L185.909 19.5365ZM192.196 34.329C193.97 41.8693 194.418 49.579 194.269 57.3308L196.269 57.3692C196.42 49.521 195.968 41.6307 194.142 33.871L192.196 34.329ZM194.269 57.3247C193.973 69.0272 190.861 81.1501 184.816 91.028L186.522 92.072C192.777 81.8499 195.965 69.3728 196.269 57.3753L194.269 57.3247ZM184.801 91.0539C181.265 97.2418 176.27 102.959 170.283 106.755L171.354 108.445C177.668 104.441 182.873 98.4582 186.537 92.0461L184.801 91.0539ZM170.264 106.768C164.995 110.281 158.696 112.625 152.256 113.356L152.482 115.344C159.242 114.575 165.843 112.119 171.374 108.432L170.264 106.768ZM145.14 78.6279C147.978 80.1757 150.93 79.8014 153.461 78.4437C155.967 77.0989 158.117 74.7704 159.541 72.2403L157.797 71.2597C156.521 73.5296 154.621 75.551 152.515 76.6813C150.433 77.7986 148.21 78.0243 146.098 76.8721L145.14 78.6279ZM159.53 72.2587C163.565 65.4298 164.788 56.7876 163.556 49.092L161.582 49.408C162.75 56.7124 161.573 64.8702 157.808 71.2413L159.53 72.2587ZM163.555 49.0856C162.939 45.3874 161.696 41.6192 159.319 38.45L157.719 39.65C159.842 42.4808 160.999 45.9126 161.583 49.4144L163.555 49.0856ZM159.328 38.4618C158.044 36.6966 155.905 34.8421 153.478 34.3222L153.059 36.2778C154.833 36.6579 156.594 38.1034 157.71 39.6382L159.328 38.4618ZM153.544 34.3385C151.091 33.6376 148.372 34.3474 146.369 35.85L147.569 37.45C149.166 36.2526 151.247 35.7624 152.994 36.2615L153.544 34.3385ZM146.414 35.8179C141.826 38.8766 139.003 44.6897 137.703 50.824C136.399 56.9803 136.579 63.6864 138.217 68.7574L140.121 68.1426C138.609 63.4636 138.414 57.1197 139.66 51.2385C140.91 45.3352 143.562 40.1234 147.524 37.482L146.414 35.8179ZM138.22 68.7662C139.432 72.401 141.482 76.6326 145.14 78.6279L146.098 76.8721C143.156 75.2674 141.306 71.699 140.118 68.1338L138.22 68.7662ZM238.774 112.25L238.422 111.314L238.413 111.317L238.774 112.25ZM223.624 111.8L223.21 112.71L223.212 112.711L223.624 111.8ZM211.924 100.7L211.063 101.209L211.066 101.214L211.924 100.7ZM206.374 78.2L205.375 78.2454L205.375 78.2587L206.374 78.2ZM208.024 48.35L209.014 48.4851L209.016 48.4775L209.016 48.4698L208.024 48.35ZM213.124 22.85L212.195 22.4786L212.18 22.5161L212.168 22.5547L213.124 22.85ZM214.924 18.8L215.548 19.5809L215.758 19.413L215.856 19.1624L214.924 18.8ZM220.474 11.75L221.104 12.5261L221.108 12.5227L220.474 11.75ZM234.874 4.39999L234.666 3.42176L234.658 3.42339L234.651 3.42514L234.874 4.39999ZM265.174 3.94999L264.98 4.93114L264.983 4.93161L265.174 3.94999ZM294.424 19.85L293.647 20.4796L293.648 20.4817L294.424 19.85ZM301.024 33.95L302.011 33.794L302.01 33.7851L302.008 33.7762L301.024 33.95ZM298.024 50.75L297.146 50.2711L297.137 50.2868L297.129 50.3028L298.024 50.75ZM290.524 60.5L289.873 59.7407L289.864 59.7486L289.855 59.7567L290.524 60.5ZM280.474 67.1L279.982 66.2294L278.785 66.906L279.797 67.8363L280.474 67.1ZM299.224 79.25L299.767 78.4104L299.764 78.4088L299.224 79.25ZM305.374 86.15L306.278 85.7234L306.277 85.7219L305.374 86.15ZM297.124 108.8L296.65 107.92L296.638 107.926L296.628 107.932L297.124 108.8ZM286.174 110.6L286.298 109.608L286.294 109.607L286.174 110.6ZM272.374 104.9L271.813 105.728L271.823 105.735L271.833 105.741L272.374 104.9ZM250.474 79.4L251.324 78.8736L249.492 79.5915L250.474 79.4ZM250.324 98.15L251.287 98.4196L251.29 98.4061L251.294 98.3925L250.324 98.15ZM244.924 108.2L244.217 107.493L244.201 107.508L244.186 107.524L244.924 108.2ZM254.524 51.05L254.901 50.1239L254.895 50.1215L254.524 51.05ZM267.724 47.3L268.511 47.9163L268.517 47.9082L268.524 47.9L267.724 47.3ZM269.224 40.85L268.243 41.0461L268.246 41.0595L269.224 40.85ZM261.724 32.45L262.171 31.5556L262.14 31.5402L262.108 31.5269L261.724 32.45ZM255.874 31.55L255.649 30.5756L255.624 30.5814L255.599 30.5885L255.874 31.55ZM249.124 46.25L248.129 46.3575L248.157 46.6102L248.301 46.8192L249.124 46.25ZM238.413 111.317C234.014 113.02 228.442 112.879 224.035 110.889L223.212 112.711C228.105 114.921 234.233 115.08 239.135 113.183L238.413 111.317ZM224.037 110.89C219.328 108.749 215.413 104.573 212.781 100.186L211.066 101.214C213.834 105.827 218.02 110.351 223.21 112.71L224.037 110.89ZM212.785 100.191C209.012 93.8071 207.82 85.7603 207.372 78.1413L205.375 78.2587C205.827 85.9397 207.035 94.3929 211.063 101.209L212.785 100.191ZM207.373 78.1546C206.926 68.3333 207.67 58.3469 209.014 48.4851L207.033 48.2149C205.678 58.1531 204.921 68.2667 205.375 78.2454L207.373 78.1546ZM209.016 48.4698C210.063 39.8022 211.553 31.3168 214.079 23.1453L212.168 22.5547C209.594 30.8832 208.085 39.4978 207.031 48.2302L209.016 48.4698ZM214.052 23.2214C214.14 23.001 214.255 22.6546 214.373 22.305C214.498 21.9374 214.638 21.5258 214.79 21.1221C214.944 20.7154 215.102 20.3391 215.257 20.0396C215.334 19.8904 215.403 19.774 215.463 19.6889C215.526 19.5983 215.557 19.574 215.548 19.5809L214.299 18.0191C213.936 18.3098 213.669 18.7559 213.48 19.1214C213.274 19.5203 213.084 19.9784 212.919 20.4153C212.753 20.8555 212.603 21.2969 212.479 21.6653C212.348 22.0516 212.257 22.324 212.195 22.4786L214.052 23.2214ZM215.856 19.1624C216.82 16.6832 218.779 14.4151 221.104 12.5261L219.843 10.9739C217.368 12.9848 215.127 15.5168 213.992 18.4376L215.856 19.1624ZM221.108 12.5227C225.214 9.1503 230.027 6.53368 235.096 5.37485L234.651 3.42514C229.221 4.66631 224.133 7.4497 219.839 10.9773L221.108 12.5227ZM235.081 5.37823C244.864 3.30301 255.227 3.01007 264.98 4.93114L265.367 2.96884C255.32 0.989926 244.683 1.29698 234.666 3.42176L235.081 5.37823ZM264.983 4.93161C275.649 7.00563 286.797 12.0265 293.647 20.4796L295.201 19.2204C287.951 10.2735 276.298 5.09436 265.365 2.96838L264.983 4.93161ZM293.648 20.4817C296.851 24.4127 299.171 29.2079 300.039 34.1238L302.008 33.7762C301.076 28.4921 298.596 23.3873 295.199 19.2183L293.648 20.4817ZM300.036 34.106C300.899 39.5748 299.747 45.5028 297.146 50.2711L298.902 51.2288C301.701 46.0972 302.948 39.7252 302.011 33.794L300.036 34.106ZM297.129 50.3028C295.381 53.7988 292.909 57.1379 289.873 59.7407L291.174 61.2593C294.438 58.4621 297.066 54.9012 298.918 51.1972L297.129 50.3028ZM289.855 59.7567C286.954 62.3673 283.465 64.2607 279.982 66.2294L280.966 67.9706C284.383 66.0393 288.093 64.0327 291.193 61.2433L289.855 59.7567ZM279.797 67.8363C282.649 70.4572 285.833 72.5242 289.059 74.4298C292.319 76.3553 295.55 78.0771 298.683 80.0912L299.764 78.4088C296.597 76.3729 293.228 74.5697 290.076 72.7077C286.89 70.8258 283.848 68.8428 281.15 66.3637L279.797 67.8363ZM298.68 80.0896C301.092 81.6503 303.208 83.9146 304.47 86.5781L306.277 85.7219C304.839 82.6854 302.455 80.1497 299.767 78.4104L298.68 80.0896ZM304.469 86.5766C307.961 93.9788 304.05 103.935 296.65 107.92L297.598 109.68C305.798 105.265 310.286 94.2212 306.278 85.7234L304.469 86.5766ZM296.628 107.932C293.722 109.592 289.758 110.04 286.298 109.608L286.05 111.592C289.789 112.06 294.226 111.608 297.62 109.668L296.628 107.932ZM286.294 109.607C281.572 109.035 277.077 106.735 272.914 104.059L271.833 105.741C276.07 108.465 280.875 110.965 286.053 111.593L286.294 109.607ZM272.934 104.072C263.826 97.9019 257.17 88.3176 251.324 78.8736L249.623 79.9264C255.477 89.3824 262.321 99.2981 271.813 105.728L272.934 104.072ZM249.492 79.5915C250.671 85.6348 250.81 92.0822 249.354 97.9075L251.294 98.3925C252.837 92.2178 252.676 85.4652 251.455 79.2085L249.492 79.5915ZM249.361 97.8804C248.336 101.542 246.749 104.96 244.217 107.493L245.631 108.907C248.498 106.04 250.212 102.258 251.287 98.4196L249.361 97.8804ZM244.186 107.524C242.656 109.194 240.694 110.462 238.423 111.314L239.125 113.186C241.653 112.238 243.892 110.806 245.661 108.876L244.186 107.524ZM254.146 51.9761C256.447 52.9135 259.318 52.7993 261.908 52.0479C264.502 51.2956 266.996 49.8524 268.511 47.9163L266.936 46.6837C265.751 48.1976 263.67 49.4544 261.351 50.1271C259.029 50.8007 256.65 50.8365 254.901 50.1239L254.146 51.9761ZM268.524 47.9C270.036 45.8841 270.716 43.0417 270.201 40.6405L268.246 41.0595C268.631 42.8583 268.112 45.1159 266.924 46.7L268.524 47.9ZM270.204 40.6539C269.365 36.4562 265.58 33.2601 262.171 31.5556L261.276 33.3444C264.467 34.9399 267.583 37.7438 268.243 41.0461L270.204 40.6539ZM262.108 31.5269C260.269 30.7605 257.92 30.0516 255.649 30.5756L256.098 32.5244C257.728 32.1484 259.578 32.6395 261.339 33.3731L262.108 31.5269ZM255.599 30.5885C252.553 31.4589 250.539 34.0747 249.375 37.0131C248.205 39.9672 247.813 43.4314 248.129 46.3575L250.118 46.1425C249.834 43.5186 250.192 40.3828 251.235 37.7494C252.284 35.1003 253.945 33.1411 256.148 32.5115L255.599 30.5885ZM248.301 46.8192C249.691 48.8266 251.63 50.9696 254.152 51.9785L254.895 50.1215C252.917 49.3304 251.256 47.5734 249.946 45.6808L248.301 46.8192ZM349.673 110.9L350.178 111.763L350.191 111.756L350.203 111.748L349.673 110.9ZM330.023 110.75L330.572 109.915L330.569 109.912L330.023 110.75ZM322.373 101.15L323.288 100.747L323.285 100.74L323.281 100.732L322.373 101.15ZM318.023 76.55L317.023 76.5817L317.023 76.5857L318.023 76.55ZM318.173 48.05L317.173 48.0137L317.173 48.0183L318.173 48.05ZM320.123 23.3L319.145 23.0919L319.143 23.1004L320.123 23.3ZM332.873 5.89999L333.304 6.80252L333.313 6.79806L332.873 5.89999ZM355.523 10.55L354.685 11.0963L354.691 11.1047L355.523 10.55ZM358.223 19.85L357.227 19.9405L357.228 19.949L357.229 19.9575L358.223 19.85ZM358.373 36.35L357.373 36.3222L357.277 39.7698L359.203 36.9082L358.373 36.35ZM378.323 14L377.711 13.2093L377.703 13.2156L377.695 13.2221L378.323 14ZM393.773 5.6L393.602 4.61479L393.572 4.61996L393.542 4.62692L393.773 5.6ZM404.123 6.8L404.545 5.89328L404.531 5.88685L404.517 5.88085L404.123 6.8ZM417.773 27.2L416.774 27.1584L416.773 27.1664L416.773 27.1744L417.773 27.2ZM409.523 42.8L408.883 42.0317L408.874 42.0394L409.523 42.8ZM387.923 53.45L387.624 52.4958L387.615 52.4985L387.607 52.5013L387.923 53.45ZM384.473 56.6L383.766 55.8929L383.715 55.9431L383.673 56L384.473 56.6ZM384.773 59.6L383.792 59.7961L383.803 59.8504L383.82 59.9032L384.773 59.6ZM390.773 68.15L391.497 67.4603L391.478 67.4405L391.458 67.4218L390.773 68.15ZM400.973 76.25L400.418 77.082L400.428 77.0889L400.439 77.0955L400.973 76.25ZM409.373 82.25L410.106 81.5695L410.083 81.5449L410.058 81.5218L409.373 82.25ZM413.423 89.9L412.435 90.056L412.437 90.0702L412.44 90.0843L413.423 89.9ZM412.823 97.1L411.874 96.7838L411.871 96.793L412.823 97.1ZM403.673 108.5L403.154 107.645L403.146 107.65L403.138 107.655L403.673 108.5ZM363.773 86.9L364.643 86.4066L363.392 84.202L362.8 86.6666L363.773 86.9ZM360.323 98L361.238 98.4036L361.242 98.3942L361.246 98.3846L360.323 98ZM349.168 110.037C343.317 113.462 335.928 113.438 330.572 109.915L329.473 111.585C335.518 115.562 343.728 115.538 350.178 111.763L349.168 110.037ZM330.569 109.912C327.331 107.801 324.888 104.382 323.288 100.747L321.458 101.553C323.158 105.418 325.815 109.199 329.477 111.588L330.569 109.912ZM323.281 100.732C319.925 93.4355 319.323 84.9237 319.022 76.5143L317.023 76.5857C317.323 84.9763 317.921 93.8645 321.464 101.568L323.281 100.732ZM319.022 76.5183C318.723 67.0986 318.873 57.5224 319.172 48.0817L317.173 48.0183C316.873 57.4776 316.722 67.1014 317.023 76.5817L319.022 76.5183ZM319.172 48.0863C319.474 39.7821 319.474 31.4958 321.103 23.4996L319.143 23.1004C317.472 31.3042 317.472 39.8179 317.174 48.0137L319.172 48.0863ZM321.101 23.5081C322.553 16.6826 327.05 9.78714 333.304 6.80247L332.442 4.99751C325.496 8.31285 320.693 15.8174 319.145 23.0919L321.101 23.5081ZM333.313 6.79806C336.783 5.09845 341.102 4.55652 345.09 5.27179C349.078 5.98704 352.624 7.93576 354.685 11.0963L356.36 10.0037C353.922 6.26423 349.818 4.08795 345.443 3.3032C341.068 2.51847 336.313 3.10154 332.433 5.00193L333.313 6.79806ZM354.691 11.1047C356.345 13.5865 356.93 16.674 357.227 19.9405L359.219 19.7595C358.916 16.426 358.3 12.9135 356.355 9.9953L354.691 11.1047ZM357.229 19.9575C357.819 25.4219 357.524 30.8834 357.373 36.3222L359.372 36.3778C359.521 31.0166 359.826 25.3781 359.217 19.7425L357.229 19.9575ZM359.203 36.9082C364.713 28.7175 371.248 20.9995 378.951 14.7779L377.695 13.2221C369.797 19.6005 363.133 27.4825 357.543 35.7918L359.203 36.9082ZM378.935 14.7907C383.571 11.2019 388.526 7.87025 394.003 6.57308L393.542 4.62692C387.619 6.02975 382.375 9.59808 377.711 13.2093L378.935 14.7907ZM393.944 6.58521C397.203 6.01843 400.757 6.44537 403.729 7.71914L404.517 5.88085C401.189 4.45463 397.243 3.98156 393.602 4.61479L393.944 6.58521ZM403.701 7.70672C406.71 9.10636 410.073 12.2561 412.656 15.9936C415.248 19.7429 416.911 23.8741 416.774 27.1584L418.772 27.2416C418.935 23.3259 416.998 18.7571 414.302 14.8564C411.598 10.9439 407.985 7.49363 404.545 5.89328L403.701 7.70672ZM416.773 27.1744C416.632 32.6663 413.222 38.4156 408.883 42.0318L410.163 43.5682C414.824 39.6843 418.613 33.4337 418.773 27.2256L416.773 27.1744ZM408.874 42.0394C402.886 47.1504 395.253 50.1024 387.624 52.4958L388.222 54.4041C395.893 51.9976 403.859 48.9496 410.172 43.5606L408.874 42.0394ZM387.607 52.5013C387.191 52.6397 386.778 52.9448 386.453 53.2124C386.098 53.5045 385.725 53.8582 385.378 54.2054C385.029 54.5548 384.692 54.9113 384.409 55.2129C384.116 55.5249 383.901 55.758 383.766 55.8929L385.18 57.3071C385.345 57.142 385.598 56.8688 385.868 56.5808C386.148 56.2824 386.467 55.9452 386.792 55.6196C387.12 55.2918 387.441 54.9893 387.724 54.7563C387.865 54.6401 387.986 54.5499 388.086 54.4853C388.192 54.4164 388.24 54.3983 388.239 54.3987L387.607 52.5013ZM383.673 56C383.374 56.3988 383.315 56.8677 383.309 57.1977C383.302 57.55 383.354 57.9144 383.416 58.2338C383.479 58.5587 383.561 58.8811 383.632 59.1516C383.707 59.4408 383.762 59.6452 383.792 59.7961L385.753 59.4039C385.709 59.1798 385.632 58.8967 385.567 58.6468C385.497 58.3783 385.429 58.1101 385.38 57.8537C385.329 57.5918 385.306 57.3844 385.309 57.2351C385.312 57.0635 385.347 57.1012 385.273 57.2L383.673 56ZM383.82 59.9032C384.948 63.4477 387.497 66.4403 390.087 68.8782L391.458 67.4218C388.948 65.0597 386.698 62.3523 385.726 59.2968L383.82 59.9032ZM390.049 68.8397C393.131 72.0761 396.812 74.6778 400.418 77.082L401.528 75.4179C397.934 73.0222 394.415 70.5239 391.497 67.4603L390.049 68.8397ZM400.439 77.0955C403.322 78.9166 406.224 80.6596 408.688 82.9782L410.058 81.5218C407.422 79.0404 404.323 77.1834 401.507 75.4045L400.439 77.0955ZM408.64 82.9305C410.507 84.9412 412.026 87.4665 412.435 90.056L414.411 89.744C413.919 86.6335 412.139 83.7588 410.106 81.5695L408.64 82.9305ZM412.44 90.0843C412.853 92.2865 412.581 94.6624 411.874 96.7838L413.772 97.4162C414.564 95.0376 414.893 92.3135 414.406 89.7157L412.44 90.0843ZM411.871 96.793C410.45 101.2 407.162 105.212 403.154 107.645L404.192 109.355C408.584 106.688 412.196 102.3 413.775 97.407L411.871 96.793ZM403.138 107.655C396.001 112.178 388.678 110.826 381.915 106.318C375.118 101.786 369.025 94.1312 364.643 86.4066L362.903 87.3934C367.371 95.2688 373.653 103.214 380.806 107.982C387.993 112.774 396.195 114.422 404.208 109.345L403.138 107.655ZM362.8 86.6666C361.905 90.3958 360.87 94.0869 359.4 97.6154L361.246 98.3846C362.776 94.7131 363.84 90.9042 364.745 87.1334L362.8 86.6666ZM359.408 97.5964C357.217 102.562 353.733 107.183 349.143 110.052L350.203 111.748C355.213 108.617 358.928 103.638 361.238 98.4036L359.408 97.5964Z" fill="black"/>
</svg>
