<svg width="186" height="64" viewBox="0 0 186 64" fill="none" xmlns="http://www.w3.org/2000/svg">
<rect x="0.5" y="0.5" width="185" height="63" rx="16.5" fill="white" stroke="black"/>
<path d="M60.1163 37.776C59.7423 38.507 59.0113 38.949 58.2123 38.949C57.6513 38.932 57.0733 38.626 56.6993 38.201C56.3423 37.776 56.1213 37.249 55.9683 36.739C55.7813 36.042 55.6963 35.311 55.7133 34.58C55.7473 33.373 55.9173 32.166 56.1213 30.976C55.7303 30.976 55.3223 30.942 54.9653 30.806C54.5573 30.653 54.2003 30.398 53.9113 30.092C53.2653 29.412 53.3673 28.12 53.9453 27.389C54.2003 27.066 54.5573 26.828 54.9313 26.692C55.1693 26.624 55.4073 26.59 55.6453 26.59C56.2573 26.556 56.8693 26.607 57.4813 26.607C57.6173 26.607 57.7533 26.59 57.8893 26.59C57.9063 26.59 57.9743 26.624 57.9913 26.624C58.7053 26.59 59.4193 26.539 60.1333 26.539C60.5923 26.556 61.0513 26.624 61.4423 26.828C62.2753 27.287 62.7003 28.256 62.5133 29.157C62.3943 29.701 61.9693 30.177 61.5103 30.449C61.1533 30.653 60.7113 30.755 60.2863 30.755C60.4223 32.421 60.6943 34.07 60.6263 35.736C60.5923 36.433 60.4393 37.147 60.1163 37.776ZM68.7296 39.102C68.2876 39.221 67.7776 39.238 67.3186 39.136C67.2676 39.119 66.9276 39.051 66.8596 39.034C66.3156 38.864 65.8566 38.439 65.4996 37.997C65.0236 37.419 64.6156 36.756 64.3096 36.059C63.9356 35.175 63.7146 34.223 63.5446 33.271C63.3916 32.268 63.3066 31.231 63.3576 30.194C63.3916 29.429 63.5616 28.613 63.9866 27.967C64.3606 27.389 64.9726 26.896 65.6526 26.743C66.2986 26.59 66.9956 26.794 67.4886 27.27C67.9136 27.661 68.1686 28.239 68.3386 28.783C68.7466 30.262 68.5596 31.86 68.5596 33.39C68.5596 33.73 68.5936 34.07 68.6956 34.393C68.7296 34.478 68.7976 34.648 68.8996 34.648C69.0016 34.648 69.1206 34.478 69.1546 34.393C69.3076 34.087 69.3756 33.747 69.4266 33.424C69.5796 32.608 69.5286 31.758 69.6136 30.942C69.6476 30.466 69.7666 29.973 69.9876 29.548C70.3276 28.885 71.1096 28.46 71.8406 28.528C72.1296 28.545 72.4016 28.681 72.6056 28.885C72.8606 29.14 73.0476 29.463 73.1836 29.803C73.4216 30.398 73.4896 31.044 73.5406 31.673C73.5916 32.404 73.6086 33.169 73.5746 33.9C73.5746 34.002 73.6936 34.291 73.7616 34.376C73.8126 34.444 73.9146 34.529 73.9996 34.512C74.1866 34.512 74.3906 34.206 74.4586 34.036C74.6286 33.645 74.7136 33.22 74.7816 32.778C74.8836 32.217 74.9346 31.656 74.9686 31.095C75.0196 30.432 75.0026 29.752 75.1216 29.106C75.1896 28.681 75.3426 28.256 75.5976 27.882C76.3286 26.794 77.8416 26.471 78.8786 27.287C79.4056 27.712 79.7966 28.324 80.0346 28.953C80.4426 30.007 80.4596 31.214 80.2386 32.319C79.9666 33.764 79.4396 35.175 78.7256 36.45C78.3686 37.096 77.9096 37.674 77.3656 38.167C76.9746 38.507 76.5326 38.813 76.0396 38.966C75.7506 39.068 75.4276 39.068 75.1216 39.017C74.0846 38.881 73.1326 38.354 72.4356 37.538C72.0956 37.147 71.8406 36.688 71.6366 36.212C71.3136 36.892 70.8716 37.521 70.3616 38.065C69.9196 38.524 69.3586 38.915 68.7296 39.102ZM86.4849 38.983C85.8219 39.017 85.1759 39.068 84.5129 39.051C83.9179 39.034 83.3059 39 82.7279 38.813C82.4219 38.711 82.1159 38.541 81.9119 38.286C81.7079 38.031 81.6059 37.708 81.5889 37.385C81.5719 36.671 81.9289 35.532 82.6089 35.294C83.0679 35.124 83.5949 35.107 84.0879 35.141C83.9179 33.764 83.9349 32.353 84.1219 30.993C83.5609 31.129 82.8809 31.095 82.3879 30.806C82.0819 30.619 81.8439 30.347 81.6739 30.041C81.3339 29.48 81.2659 28.715 81.4359 28.069C81.6059 27.474 82.0649 26.896 82.6259 26.658C83.2209 26.42 83.9009 26.437 84.5299 26.471C84.6489 26.471 85.3799 26.386 85.4989 26.386C85.8049 26.369 87.5559 26.369 87.8449 26.386C88.4569 26.403 89.1369 26.488 89.6299 26.828C89.8679 26.998 90.0549 27.219 90.1909 27.457C90.8029 28.579 90.3779 30.16 89.3239 30.874C89.0349 31.078 88.6609 31.163 88.3039 31.197C88.4909 32.336 88.4909 33.526 88.2869 34.682C88.6609 34.699 89.0349 34.75 89.3749 34.903C89.6299 35.022 89.8849 35.209 90.0549 35.447C90.4459 35.957 90.6499 36.671 90.5819 37.317C90.5309 37.81 90.2419 38.32 89.8509 38.592C89.4599 38.864 88.9499 38.949 88.4739 38.983C87.8109 39.017 87.1479 38.932 86.4849 38.983ZM97.9347 37.776C97.5607 38.507 96.8297 38.949 96.0307 38.949C95.4697 38.932 94.8917 38.626 94.5177 38.201C94.1607 37.776 93.9397 37.249 93.7867 36.739C93.5997 36.042 93.5147 35.311 93.5317 34.58C93.5657 33.373 93.7357 32.166 93.9397 30.976C93.5487 30.976 93.1407 30.942 92.7837 30.806C92.3757 30.653 92.0187 30.398 91.7297 30.092C91.0837 29.412 91.1857 28.12 91.7637 27.389C92.0187 27.066 92.3757 26.828 92.7497 26.692C92.9877 26.624 93.2257 26.59 93.4637 26.59C94.0757 26.556 94.6877 26.607 95.2997 26.607C95.4357 26.607 95.5717 26.59 95.7077 26.59C95.7247 26.59 95.7927 26.624 95.8097 26.624C96.5237 26.59 97.2377 26.539 97.9517 26.539C98.4107 26.556 98.8697 26.624 99.2607 26.828C100.094 27.287 100.519 28.256 100.332 29.157C100.213 29.701 99.7877 30.177 99.3287 30.449C98.9717 30.653 98.5297 30.755 98.1047 30.755C98.2407 32.421 98.5127 34.07 98.4447 35.736C98.4107 36.433 98.2577 37.147 97.9347 37.776ZM107.381 37.776C107.007 38.507 106.276 38.949 105.477 38.949C104.916 38.932 104.338 38.626 103.964 38.201C103.607 37.776 103.386 37.249 103.233 36.739C103.046 36.042 102.961 35.311 102.978 34.58C103.012 33.373 103.182 32.166 103.386 30.976C102.995 30.976 102.587 30.942 102.23 30.806C101.822 30.653 101.465 30.398 101.176 30.092C100.53 29.412 100.632 28.12 101.21 27.389C101.465 27.066 101.822 26.828 102.196 26.692C102.434 26.624 102.672 26.59 102.91 26.59C103.522 26.556 104.134 26.607 104.746 26.607C104.882 26.607 105.018 26.59 105.154 26.59C105.171 26.59 105.239 26.624 105.256 26.624C105.97 26.59 106.684 26.539 107.398 26.539C107.857 26.556 108.316 26.624 108.707 26.828C109.54 27.287 109.965 28.256 109.778 29.157C109.659 29.701 109.234 30.177 108.775 30.449C108.418 30.653 107.976 30.755 107.551 30.755C107.687 32.421 107.959 34.07 107.891 35.736C107.857 36.433 107.704 37.147 107.381 37.776ZM117.422 39.034C116.317 39.085 115.212 39.085 114.124 38.898C113.427 38.779 112.73 38.507 112.203 38.048C111.404 37.351 110.877 36.28 110.724 35.209C110.537 34.087 110.588 32.914 110.758 31.775C110.894 30.755 111.115 29.735 111.574 28.817C111.863 28.273 112.254 27.763 112.713 27.338C112.985 27.083 113.291 26.862 113.648 26.743C114.039 26.59 114.481 26.607 114.889 26.522C115.535 26.403 116.198 26.403 116.844 26.369C117.864 26.301 118.952 26.335 119.853 26.794C120.074 26.913 120.278 27.1 120.431 27.321C120.601 27.593 120.686 27.916 120.703 28.256C120.771 29.276 120.091 30.279 119.071 30.262C118.782 30.262 118.476 30.194 118.204 30.109C117.677 29.973 117.15 29.803 116.606 29.735C116.164 29.701 115.671 29.752 115.314 30.024C115.161 30.143 115.042 30.347 115.042 30.551C115.059 30.721 115.246 30.721 115.416 30.704C115.943 30.636 116.436 30.449 116.963 30.398C117.286 30.364 117.626 30.347 117.932 30.449C118.204 30.568 118.459 30.789 118.578 31.061C118.731 31.435 118.782 31.843 118.748 32.234C118.731 32.608 118.629 33.016 118.391 33.305C118.238 33.509 118.034 33.662 117.796 33.764C117.541 33.866 117.269 33.883 116.98 33.9C116.555 33.917 115.331 33.73 115.025 34.036C114.702 34.342 115.127 34.818 115.569 34.92C116.011 35.005 116.487 34.886 116.929 34.784C117.575 34.648 118.255 34.478 118.901 34.597C119.411 34.665 119.938 34.954 120.21 35.362C120.431 35.702 120.482 36.161 120.397 36.552C120.244 37.3 119.836 38.065 119.241 38.541C118.748 38.932 118.051 39.017 117.422 39.034ZM125.552 38.915C125.025 39.119 124.362 39.102 123.835 38.864C123.274 38.609 122.815 38.116 122.509 37.606C122.067 36.858 121.931 35.923 121.88 35.056C121.829 33.934 121.914 32.795 122.067 31.673C122.186 30.687 122.356 29.718 122.645 28.783C122.679 28.698 122.764 28.392 122.849 28.324C122.968 28.018 123.206 27.746 123.478 27.525C123.954 27.134 124.515 26.828 125.11 26.692C126.232 26.454 127.422 26.42 128.544 26.641C129.768 26.879 131.06 27.457 131.859 28.443C132.233 28.902 132.505 29.463 132.607 30.041C132.709 30.687 132.573 31.384 132.267 31.945C132.063 32.353 131.774 32.744 131.417 33.05C131.077 33.356 130.669 33.577 130.278 33.798C130.907 34.376 131.689 34.716 132.403 35.175C132.692 35.362 132.947 35.634 133.1 35.957C133.525 36.858 133.049 38.048 132.165 38.524C131.808 38.728 131.332 38.779 130.924 38.728C130.363 38.66 129.836 38.388 129.36 38.082C128.306 37.368 127.541 36.263 126.878 35.192C127.014 35.889 127.031 36.637 126.861 37.317C126.742 37.742 126.555 38.15 126.249 38.456C126.062 38.66 125.824 38.813 125.552 38.915ZM127.337 31.979C127.796 32.166 128.527 31.945 128.833 31.554C128.986 31.35 129.054 31.061 129.003 30.823C128.918 30.398 128.527 30.058 128.153 29.871C127.949 29.786 127.711 29.718 127.49 29.769C126.895 29.939 126.657 30.806 126.725 31.435C126.878 31.656 127.082 31.877 127.337 31.979Z" fill="black"/>
</svg>
